# xmcd
#
# Track frame offsets: 
#        150
#        19276
#        38155
#        63253
#        83074
#        101303
#        117204
#        135009
#
# Disc length: 2106 seconds
#
# Revision: 0
# Processed by: cddbd v1.5.2PL0 Copyright (c) Steve Scherf et al.
# Submitted via: ExactAudioCopyFreeDBPlugin 1.0
#
DISCID=55083808
DTITLE=Sho-Nuff - Stand Up For Love
DYEAR=1982
DGENRE=Soul
TTITLE0=Queen Of The Night
TTITLE1=Stand Up
TTITLE2=Don't Be Lonely
TTITLE3=Don't Use Me Up
TTITLE4=You Got Me Workin'
TTITLE5=Just To Love Someone Like You
TTITLE6=Choosin' You
TTITLE7=Sho-Nuff Groove
EXTD=
EXTT0=
EXTT1=
EXTT2=
EXTT3=
EXTT4=
EXTT5=
EXTT6=
EXTT7=
PLAYORDER=
